<svg version="1.1" id="Layer_1" xmlns="http://www.w3.org/2000/svg" xmlns:xlink="http://www.w3.org/1999/xlink" x="0px" y="0px"
	 width="100%" viewBox="0 0 1024 1024" enable-background="new 0 0 1024 1024" xml:space="preserve">
<path fill="#77BBFF" opacity="1.000000" stroke="none" 
	d="
M407.500122,652.814148 
	C383.889526,658.786133 361.583893,655.353333 339.721344,646.576782 
	C316.038696,637.069519 292.749207,637.180847 270.023315,649.820312 
	C265.150879,652.530273 260.304962,651.262573 257.713898,647.142273 
	C255.104218,642.992371 255.906326,637.300964 260.075500,634.207520 
	C268.834869,627.708313 279.183411,625.009583 289.605438,622.692139 
	C309.890594,618.181580 329.298767,622.283752 348.278992,629.243958 
	C362.989471,634.638489 377.953705,637.928162 393.707214,636.661682 
	C394.864380,636.568665 396.077026,636.605347 397.156250,636.252441 
	C398.373688,635.854431 399.859467,636.022522 401.344452,634.090637 
	C396.157806,628.793457 391.005096,623.262939 385.569305,618.026306 
	C363.852570,597.105469 342.045715,576.278198 320.281128,555.407043 
	C319.079376,554.254578 317.965973,553.010376 316.796753,551.823486 
	C315.185150,550.187439 314.130615,548.361755 314.986908,545.992188 
	C315.958405,543.303833 318.321075,543.435730 320.444641,543.685974 
	C329.346802,544.734985 338.236572,545.894104 347.122528,547.075562 
	C361.440796,548.979309 375.818726,550.300232 390.186859,551.752869 
	C418.686554,554.634399 447.284210,555.561462 475.884583,556.168762 
	C483.354828,556.327332 490.839722,556.753906 498.328705,556.620544 
	C502.189911,556.551758 504.138611,555.281006 504.072479,551.049927 
	C503.984161,545.396118 504.387726,539.733643 504.614594,534.076294 
	C504.793518,529.615112 503.204865,526.710938 498.692230,524.926147 
	C478.782440,517.051514 458.301025,511.687195 437.006165,509.207672 
	C413.576538,506.479584 390.194458,506.598297 366.777863,509.150024 
	C363.874573,509.466400 360.557983,510.157104 358.548309,507.069977 
	C356.471832,503.880096 358.179382,501.015900 359.833435,498.256073 
	C394.001434,441.246643 426.687866,383.373505 460.235870,326.002441 
	C474.277802,301.989044 488.060150,277.823883 501.975464,253.736389 
	C503.500916,251.095856 504.895691,248.313095 504.513641,245.255310 
	C503.326599,235.754395 504.755493,226.283615 504.580566,216.796997 
	C504.434814,208.889572 507.183319,206.357468 515.157410,206.668930 
	C517.756287,206.770432 519.939880,206.452667 522.051758,204.643814 
	C537.545105,191.373459 554.937317,190.934097 573.148438,197.612244 
	C582.051697,200.877151 590.699585,204.835861 599.589539,208.140396 
	C611.728088,212.652466 623.394714,211.778351 634.372314,204.400375 
	C637.228638,202.480682 640.121887,200.492188 643.942505,200.582062 
	C650.659180,200.740051 654.797119,207.063110 651.930908,213.163345 
	C650.462830,216.287994 647.827271,218.357300 645.054749,220.256653 
	C629.546326,230.881058 612.981995,233.419998 595.246277,226.682343 
	C584.825012,222.723389 574.471436,218.584213 564.022949,214.699341 
	C549.128845,209.161499 537.041809,214.132141 526.645447,225.035278 
	C523.311829,228.531433 524.393127,232.711929 524.645691,237.543991 
	C529.798218,234.685806 534.437073,231.938995 539.699463,230.437912 
	C550.423401,227.378998 560.838074,228.456604 571.043579,232.278778 
	C580.863708,235.956619 590.530884,240.040665 600.298767,243.860779 
	C612.227295,248.525909 623.732117,247.991440 634.637024,240.819427 
	C635.609192,240.180069 636.633911,239.607315 637.678467,239.093628 
	C642.727112,236.610748 648.096863,237.928650 650.858826,242.297043 
	C653.441650,246.382111 652.581238,251.063354 647.982788,254.615829 
	C634.725403,264.857574 619.963989,268.777924 603.400574,264.677856 
	C590.549744,261.496857 578.898743,255.168472 566.511108,250.774307 
	C548.015076,244.213333 538.065063,249.677689 526.208008,260.792450 
	C524.727112,262.180664 524.312378,263.817841 524.335205,265.734375 
	C524.374939,269.066650 524.757690,272.466064 524.248596,275.720337 
	C522.702576,285.604248 527.270630,292.086121 534.412903,298.399780 
	C556.128906,317.596436 577.350403,337.362030 595.954895,359.704376 
	C626.361938,396.220520 647.104553,437.453766 656.040833,484.294525 
	C658.749023,498.489899 660.566284,512.837585 660.467468,527.366333 
	C660.420654,534.250488 656.880493,536.953186 650.509521,534.018127 
	C637.878357,528.199036 624.870483,523.488403 611.059753,521.859375 
	C581.268433,518.345398 552.990906,522.751404 527.394531,539.477051 
	C524.690002,541.244324 522.898987,552.694153 524.940491,555.156860 
	C526.130920,556.592957 527.876831,556.403687 529.573853,556.363037 
	C539.897400,556.115906 550.221924,555.777283 560.546875,555.747192 
	C584.365112,555.677734 608.065979,553.783325 631.801025,552.013000 
	C654.683594,550.306274 677.394714,547.340759 700.147461,544.612915 
	C702.285889,544.356506 704.398804,543.842407 706.541260,543.676147 
	C708.721558,543.506897 710.941589,543.564941 712.165100,545.939758 
	C713.422791,548.380859 712.083130,550.117493 710.503479,551.680603 
	C703.522278,558.588440 696.545288,565.501709 689.479675,572.322815 
	C669.345032,591.760681 649.164490,611.151001 629.014832,630.573425 
	C627.615479,631.922302 626.322083,633.381104 624.964417,634.804443 
	C626.885010,636.740051 628.914001,636.518677 630.875916,636.681396 
	C646.284485,637.959290 661.016907,635.177490 675.326416,629.542725 
	C688.738220,624.261597 702.597778,620.701904 717.084351,620.807678 
	C732.607300,620.921021 747.414917,624.502441 761.215759,631.764709 
	C763.100220,632.756409 764.975342,634.046692 766.372620,635.625488 
	C769.409424,639.056824 770.295166,643.030640 767.452576,647.024719 
	C764.745422,650.828369 760.988220,652.282715 756.507080,650.459167 
	C752.666626,648.896423 749.035889,646.811218 745.179199,645.296326 
	C724.192993,637.053162 703.453491,638.814026 682.917542,647.073608 
	C670.144043,652.211121 656.846863,655.463257 643.137024,655.867126 
	C628.914307,656.286133 614.919800,653.805786 601.583435,648.722290 
	C579.182129,640.183350 556.883911,639.867615 534.216492,647.818054 
	C517.936584,653.528015 501.443542,652.688477 485.219666,647.110962 
	C464.570740,640.012085 444.126434,640.122742 423.682861,648.011841 
	C418.580505,649.980835 413.166840,651.143127 407.500122,652.814148 
M540.679199,510.995239 
	C573.143188,499.913239 605.947632,498.937408 639.453247,508.543610 
	C636.091797,468.843750 622.807922,433.591644 602.116455,400.860382 
	C581.495789,368.241150 554.450378,341.630341 524.760193,315.999573 
	C524.760193,384.007019 524.760193,450.518616 524.760193,517.614807 
	C530.214050,515.342468 535.084656,513.313171 540.679199,510.995239 
M444.288391,392.740356 
	C425.940674,424.327728 407.592957,455.915100 388.440369,488.888123 
	C428.861572,487.161743 466.586884,492.559692 503.793213,506.050507 
	C503.793213,433.491180 503.793213,362.164276 503.793213,290.837402 
	C484.038849,324.883820 463.822021,358.193512 444.288391,392.740356 
z"/>
<!-- U -->
<path fill="#eff" opacity="1.000000" stroke="none" 
	d="
M514.731323,770.914734 
	C514.722046,750.264954 514.708679,730.103271 514.705444,709.941589 
	C514.704163,701.911743 517.822205,698.776245 525.846741,698.715698 
	C528.012695,698.699341 530.183777,698.621033 532.344055,698.733215 
	C538.776978,699.067139 542.367981,702.824341 542.373474,709.277405 
	C542.390442,729.272400 542.314758,749.267517 542.374329,769.262329 
	C542.408997,780.884277 548.054382,788.867188 557.897095,791.578857 
	C569.880432,794.880188 582.436584,785.811279 582.629150,773.256836 
	C582.940979,752.933044 582.855225,732.603027 582.920288,712.275635 
	C582.936096,707.351929 582.757263,701.800537 588.336975,700.009949 
	C594.812195,697.932007 601.742676,697.046143 607.908020,701.582825 
	C609.965393,703.096741 610.416016,705.366638 610.411621,707.816101 
	C610.370728,731.143555 610.964172,754.492065 610.154114,777.792053 
	C609.461121,797.725586 592.150269,816.001648 573.264160,819.957764 
	C547.101074,825.438110 522.583557,810.535400 516.288696,784.744507 
	C515.226135,780.391113 514.521057,775.934753 514.731323,770.914734 
z"/>
<!-- X -->
<path fill="#77BBFF" opacity="1.000000" stroke="none" 
	d="
M694.559692,722.484863 
	C697.260010,726.289490 699.755249,729.798340 702.498108,733.655396 
	C706.333557,729.611755 708.780334,725.109131 711.713257,720.978333 
	C716.051819,714.867920 720.391846,708.757385 724.628723,702.576538 
	C726.488953,699.862915 728.797791,698.617004 732.164795,698.682007 
	C740.453491,698.842102 748.747314,698.734497 756.656067,698.734497 
	C757.979004,700.841797 756.835266,701.793152 756.102905,702.860229 
	C744.325378,720.021240 732.625488,737.236511 720.703369,754.296387 
	C718.621338,757.275635 718.749329,759.400635 720.715759,762.274048 
	C732.286255,779.180847 743.715698,796.184204 755.158325,813.178223 
	C756.237427,814.780823 757.819946,816.250488 757.153748,819.387329 
	C750.242493,819.387329 743.126404,818.954163 736.089172,819.513245 
	C729.502747,820.036499 725.345276,817.882019 721.846863,812.158691 
	C715.960938,802.529480 709.223938,793.420410 702.569519,783.689636 
	C696.184814,790.946838 691.654175,798.864929 686.474365,806.290649 
	C677.380737,819.327209 677.501221,819.412842 661.787720,819.432495 
	C656.869934,819.438660 651.952148,819.433472 646.751709,819.433472 
	C647.086304,815.498108 649.361694,813.521484 650.857666,811.269531 
	C661.455383,795.316284 672.070984,779.370239 683.023071,763.660400 
	C685.777710,759.709106 685.747620,756.772644 683.136902,752.951355 
	C672.333923,737.138855 661.722046,721.195679 651.059814,705.287109 
	C649.960999,703.647583 648.565613,702.151794 648.184204,700.076660 
	C649.276550,698.199463 651.132690,698.828125 652.667969,698.803467 
	C659.164551,698.699280 665.678467,698.991699 672.155884,698.617126 
	C676.584656,698.361023 679.318970,700.169006 681.622681,703.653564 
	C685.755920,709.905334 690.099182,716.018250 694.559692,722.484863 
z"/>
<!-- F -->
<path fill="#eff" opacity="1.000000" stroke="none" 
	d="
M274.707794,769.000000 
	C274.707306,749.166748 274.697571,729.833435 274.716156,710.500183 
	C274.723877,702.496033 278.289978,698.763428 286.215607,698.743469 
	C306.548584,698.692383 326.881989,698.708374 347.214935,698.780884 
	C355.510315,698.810425 358.316833,701.709900 358.341583,709.867004 
	C358.385284,724.278870 358.385406,724.306152 343.931702,724.369629 
	C331.765289,724.423096 319.598083,724.467590 307.432281,724.376770 
	C303.772003,724.349487 301.906403,725.297668 302.255829,729.492126 
	C302.641907,734.126709 302.596313,738.835205 302.276947,743.479736 
	C301.979095,747.811646 303.821228,748.921082 307.811462,748.779846 
	C314.802979,748.532349 321.809326,748.653748 328.808960,748.698364 
	C337.508545,748.753723 340.202301,752.039490 340.195282,762.431213 
	C340.189484,771.036316 337.257355,774.189209 329.051361,774.259888 
	C322.218597,774.318665 315.362274,774.618958 308.558990,774.168579 
	C303.290405,773.819824 302.021423,775.787354 302.229309,780.725952 
	C302.600464,789.543457 302.372681,798.388367 302.309967,807.221252 
	C302.251099,815.515076 296.951447,820.301758 288.021057,820.259705 
	C279.484070,820.219421 274.803131,815.871094 274.725433,807.499634 
	C274.607849,794.834167 274.704407,782.166626 274.707794,769.000000 
z"/>
<!-- L -->
<path fill="#eff" opacity="1.000000" stroke="none" 
	d="
M400.642395,764.999878 
	C400.592834,746.186584 400.538696,727.873291 400.497192,709.559998 
	C400.479828,701.901428 403.659485,698.875671 411.445526,698.684204 
	C426.229492,698.320740 428.718658,700.549866 428.457062,715.197327 
	C428.023132,739.497375 428.443390,763.811707 428.255737,788.118042 
	C428.221985,792.492432 429.478577,793.920532 433.897980,793.809753 
	C445.046051,793.530090 456.205658,793.696899 467.360626,793.708496 
	C477.946075,793.719482 480.358246,796.100708 480.345764,806.455872 
	C480.343964,807.954285 480.389160,809.455383 480.316437,810.950562 
	C480.079102,815.827698 477.015869,819.263184 472.222656,819.292175 
	C451.078979,819.420105 429.933899,819.440674 408.790100,819.338257 
	C403.705872,819.313660 400.711304,815.692810 400.682129,809.953369 
	C400.606812,795.135864 400.648163,780.317810 400.642395,764.999878 
z"/>
</svg>
